<?xml version="1.0" encoding="UTF-8" standalone="no"?>
<!-- Generated by Pixelmator Pro 3.6.11 -->

<svg
   width="2748"
   height="802"
   viewBox="0 0 2748 802"
   version="1.1"
   id="svg1"
   sodipodi:docname="outboxkit-with-name.svg"
   inkscape:version="1.4 (e7c3feb1, 2024-10-09)"
   xmlns:inkscape="http://www.inkscape.org/namespaces/inkscape"
   xmlns:sodipodi="http://sodipodi.sourceforge.net/DTD/sodipodi-0.dtd"
   xmlns="http://www.w3.org/2000/svg"
   xmlns:svg="http://www.w3.org/2000/svg">
  <defs
     id="defs1">
    <rect
       x="1041.7858"
       y="99.379395"
       width="192.64662"
       height="158.23735"
       id="rect2" />
  </defs>
  <sodipodi:namedview
     id="namedview1"
     pagecolor="#ffffff"
     bordercolor="#000000"
     borderopacity="0.25"
     inkscape:showpageshadow="2"
     inkscape:pageopacity="0.0"
     inkscape:pagecheckerboard="0"
     inkscape:deskcolor="#d1d1d1"
     inkscape:zoom="7.9387471"
     inkscape:cx="2222.0761"
     inkscape:cy="750.49625"
     inkscape:window-width="2560"
     inkscape:window-height="1387"
     inkscape:window-x="1920"
     inkscape:window-y="25"
     inkscape:window-maximized="0"
     inkscape:current-layer="svg1" />
  <g
     id="Group">
    <g
       id="Color"
       inkscape:label="icon">
      <g
         id="Letter">
        <path
           id="Path"
           fill="#fffdf5"
           fill-rule="evenodd"
           stroke="none"
           d="M 106 290 L 687 290 L 765 349 L 439 560 L 353 562 L 29 346 L 106 290 Z" />
        <path
           id="path1"
           fill="#efb219"
           fill-rule="evenodd"
           stroke="#000000"
           stroke-width="10"
           d="M 113 404 L 113 25 L 571 23 L 676 122 L 682 404 L 436 561 L 351 561 Z" />
        <path
           id="path2"
           fill="#f0ede4"
           fill-rule="evenodd"
           stroke="none"
           d="M 26 359 L 358 563 L 436 563 L 775 351 L 773 786 L 24 784 Z" />
        <path
           id="Oval"
           fill="#b43c3c"
           fill-rule="evenodd"
           stroke="none"
           d="M 435 606.5 C 435 585.237061 417.76297 568 396.5 568 C 375.23703 568 358 585.237061 358 606.5 C 358 627.762939 375.23703 645 396.5 645 C 417.76297 645 435 627.762939 435 606.5 Z" />
        <path
           id="path3"
           fill="#000000"
           stroke="none"
           d="M 768.469543 318.266418 L 695.643372 263.724487 L 695.643372 107.361389 L 596.338928 7 L 99.657883 7 L 99.657883 263.724487 L 26.831734 318.266418 C 12.242025 329.19342 0.321681 353.034119 0.321681 371.225342 L 0.321681 768.538391 C 0.321681 786.791626 15.222113 801.661072 33.413353 801.661072 L 761.857666 801.661072 C 780.079956 801.661072 794.980347 786.76062 794.980347 768.538391 L 795.011353 371.225342 C 795.011353 353.034119 783.091003 329.19342 768.470337 318.266418 Z M 748.633301 344.776489 C 750.092224 345.863007 751.582275 347.50824 753.041321 349.432922 L 695.64325 387.211639 L 695.64325 305.104309 Z M 596.307129 54.09491 L 648.023926 106.370422 L 596.307129 106.370422 Z M 563.215515 40.125854 L 563.215515 139.462036 L 662.551697 139.462036 L 662.551697 409.004883 L 440.594849 554.997314 C 428.860474 544.970703 413.588135 538.855591 396.917908 538.855591 C 380.589417 538.855591 365.596008 544.69165 353.955414 554.376648 L 132.74559 408.940491 L 132.74559 40.125061 Z M 396.918732 571.979858 C 415.761627 571.979858 431.065765 587.315002 431.065765 606.126892 C 431.065765 624.938782 415.761627 640.273865 396.918732 640.273865 C 378.106812 640.273865 362.771667 624.938782 362.771667 606.126892 C 362.771667 587.315002 378.075806 571.979858 396.918732 571.979858 Z M 46.667187 344.778076 L 99.657089 305.105591 L 99.657089 387.149353 L 42.259045 349.401581 C 43.718014 347.507965 45.208057 345.862762 46.667107 344.776245 Z M 761.82428 768.57019 L 33.475342 768.57019 L 33.41325 383.266357 L 334.465515 581.191772 C 331.392303 588.890381 329.684998 597.30249 329.684998 606.118896 C 329.684998 643.276917 359.79657 673.387695 396.922913 673.387695 C 434.049194 673.387695 464.191803 643.276123 464.191803 606.118896 C 464.191803 597.644226 462.608582 589.542358 459.752716 582.061157 L 761.893677 383.261627 L 761.831604 768.565369 Z" />
        <path
           id="path4"
           fill="#000000"
           stroke="none"
           d="M 281.753876 702.355835 L 83.081451 702.355835 C 73.924248 702.355835 66.536018 709.775024 66.536018 718.901306 C 66.536018 728.058472 73.955154 735.477722 83.081451 735.477722 L 281.753876 735.477722 C 290.911072 735.477722 298.330292 728.058533 298.330292 718.901306 C 298.330292 709.775085 290.911163 702.355835 281.753876 702.355835 Z" />
        <path
           id="path5"
           fill="#000000"
           stroke="none"
           d="M 83.081451 669.233154 L 149.326004 669.233154 C 158.483215 669.233154 165.871429 661.845032 165.871429 652.687744 C 165.871429 643.561523 158.452286 636.142273 149.326004 636.142273 L 83.081451 636.142273 C 73.924248 636.142273 66.536018 643.530396 66.536018 652.687744 C 66.536018 661.813965 73.955154 669.233154 83.081451 669.233154 Z" />
      </g>
      <g
         id="Bull">
        <path
           id="Path-copy"
           fill="#9d5d41"
           stroke="#000000"
           stroke-width="11.22807"
           d="M 409.754272 515.360962 L 401.148163 514.90448 C 378.981018 518.813599 366.619385 508.783905 363.552582 505.833771 C 350.232056 497.844147 347.0177 486.318573 346.674561 477.995789 C 346.53244 474.725769 345.740295 471.51828 344.349518 468.573639 C 342.958344 465.613464 340.985626 462.977844 338.542694 460.788086 C 313.877197 438.679047 297.527893 384.282318 291.226349 360.082764 C 285.795105 366.359344 278.965118 371.273743 271.285309 374.440491 C 263.605469 377.591614 255.291122 378.911987 247.021805 378.261353 L 232.784622 377.182526 C 230.966019 377.040894 229.199509 376.494537 227.625015 375.555695 C 226.050995 374.632385 224.716293 373.346313 223.717041 371.819397 C 222.702316 370.292877 222.069839 368.539703 221.854935 366.729675 C 221.639954 364.919861 221.842865 363.068634 222.452316 361.347076 L 226.338959 350.268066 C 230.241104 339.188721 238.238846 330.010376 248.687653 324.619293 L 243.094299 321.110443 C 224.822647 308.588043 211.814911 289.296631 206.469513 266.761963 C 196.452042 224.483276 210.856033 197.524902 224.710953 182.335999 C 239.669006 165.959534 256.906403 159.673096 257.629059 159.407166 C 258.705658 159.024048 259.883636 158.979675 260.992065 159.262878 C 262.100555 159.545959 263.108002 160.141907 263.87384 161.007446 C 264.639343 161.857483 265.131042 162.931458 265.282776 164.060181 C 265.434906 165.204529 265.245972 166.357117 264.743835 167.393433 C 249.904892 197.512695 246.887543 221.911743 255.766937 239.876404 C 260.32074 249.08905 272.995911 265.564819 306.765076 272.278259 C 313.483337 273.572144 320.457306 272.641235 326.604095 269.605164 C 345.617737 260.451843 366.140137 260.306152 380.013367 261.781982 C 389.953217 262.857361 400.000092 262.611389 409.875427 261.051025 C 423.661346 258.898376 444.165161 258.039612 463.603363 266.251648 C 469.891388 268.983337 476.902557 269.571899 483.5495 267.950806 C 516.948181 259.593689 528.802795 242.51709 532.901184 233.092651 C 540.89093 214.714661 536.683105 190.492004 520.388733 161.13562 C 519.836487 160.125244 519.591309 158.983276 519.687256 157.832825 C 519.783569 156.697876 520.222168 155.601257 520.94519 154.714722 C 521.667786 153.812744 522.629395 153.16864 523.738098 152.831238 C 524.831421 152.494202 525.994507 152.481262 527.104187 152.810913 C 527.838989 153.041138 545.363342 158.476685 561.104736 174.101624 C 575.68573 188.591736 591.391846 214.815857 583.455078 257.534058 C 579.218628 280.303589 567.170349 300.210297 549.533203 313.609283 L 544.118286 317.387665 C 554.818237 322.261017 563.255493 331.037048 567.695068 341.912262 L 572.119263 352.787811 C 572.812073 354.477417 573.105408 356.316376 572.979187 358.134766 C 572.853088 359.953033 572.291687 361.735291 571.368286 363.309448 C 570.444885 364.883545 569.174927 366.233307 567.647888 367.232483 C 566.121338 368.247223 564.383667 368.879272 562.558533 369.110168 L 548.406677 370.883942 C 540.178711 371.923065 531.810059 371.026428 523.985352 368.254761 C 516.160095 365.467621 509.09787 360.89328 503.365692 354.889923 C 498.241791 379.434326 484.516541 434.767456 460.85083 457.964966 C 458.547974 460.224335 456.737274 462.937195 455.507416 465.930542 C 454.292969 468.923431 453.689026 472.134216 453.737244 475.375458 C 453.817047 483.704742 451.170502 495.373749 438.256989 504.005524 C 435.731506 506.673737 426.563599 514.949951 409.756378 515.361328 Z" />
        <path
           id="path6"
           fill="#000000"
           stroke="#000000"
           stroke-width="11.22807"
           d="M 409.754242 515.360901 L 401.148132 514.90448 C 378.981018 518.813599 366.619354 508.783905 363.552551 505.833771 C 350.232025 497.844116 347.01767 486.318604 346.67453 477.995758 C 346.53244 474.725769 345.740295 471.518311 344.349518 468.573639 C 342.958374 465.613495 340.985626 462.977814 338.542725 460.788055 C 313.877228 438.679077 297.527863 384.282318 291.226349 360.082733 C 285.795105 366.359344 278.965118 371.273773 271.285309 374.44046 C 263.605499 377.591614 255.291107 378.911987 247.02179 378.261322 L 232.784607 377.182526 C 230.966003 377.040863 229.199524 376.494568 227.625 375.555695 C 226.05101 374.632355 224.716324 373.346313 223.717072 371.819397 C 222.702332 370.292847 222.06987 368.539703 221.854904 366.729706 C 221.639938 364.91983 221.842865 363.068665 222.452301 361.347076 L 226.338974 350.268066 C 230.241119 339.18869 238.238846 330.010376 248.687622 324.619293 L 243.094315 321.110413 C 224.822662 308.588043 211.81488 289.296692 206.469543 266.761963 C 196.452057 224.483276 210.856049 197.524963 224.710922 182.335999 C 239.669022 165.959534 256.906372 159.673096 257.629059 159.407227 C 258.705658 159.023987 259.883636 158.979675 260.992096 159.262817 C 262.100525 159.545959 263.107971 160.141907 263.87384 161.007446 C 264.639313 161.857483 265.131042 162.931396 265.282806 164.060242 C 265.434906 165.204529 265.245941 166.357178 264.743835 167.393433 C 249.904877 197.512695 246.887573 221.911804 255.766968 239.876465 C 260.320709 249.089111 272.99588 265.564758 306.765106 272.278259 C 313.483368 273.572144 320.457336 272.641235 326.604126 269.605164 C 345.617706 260.451843 366.140167 260.306152 380.013336 261.781982 C 389.953186 262.857361 400.000061 262.611389 409.875397 261.051025 C 423.661346 258.898376 444.165131 258.039673 463.603363 266.251648 C 469.891388 268.983337 476.902527 269.571899 483.549469 267.950867 C 516.948181 259.593628 528.802856 242.51709 532.901184 233.092651 C 540.89093 214.714722 536.683105 190.492065 520.388672 161.135681 C 519.836487 160.125244 519.591309 158.983215 519.687256 157.832825 C 519.783569 156.697937 520.222168 155.601257 520.94519 154.714722 C 521.667786 153.812744 522.629333 153.16864 523.738098 152.831238 C 524.83136 152.494202 525.994568 152.481201 527.104187 152.810913 C 527.838989 153.041138 545.363281 158.476624 561.104736 174.101624 C 575.68573 188.591736 591.391907 214.815796 583.455017 257.533997 C 579.218628 280.303589 567.170349 300.210297 549.533203 313.609283 L 544.118286 317.387665 C 554.818359 322.261047 563.255554 331.037048 567.695129 341.912231 L 572.119202 352.787811 C 572.812134 354.477386 573.105347 356.316376 572.979248 358.134766 C 572.853088 359.953003 572.291626 361.735321 571.368286 363.309479 C 570.444946 364.883514 569.174805 366.233307 567.647888 367.232513 C 566.121277 368.247253 564.383667 368.879303 562.558594 369.110199 L 548.406677 370.883911 C 540.178711 371.923096 531.81012 371.026428 523.985291 368.254791 C 516.160156 365.467651 509.09787 360.89325 503.365692 354.889923 C 498.241791 379.434326 484.51651 434.767426 460.8508 457.964966 C 458.548004 460.224335 456.737244 462.937195 455.507416 465.930542 C 454.292999 468.923431 453.688995 472.134216 453.737274 475.375427 C 453.817047 483.704712 451.170532 495.373718 438.256989 504.005524 C 435.731476 506.673706 426.563629 514.949951 409.756378 515.361328 Z M 293.838165 341.227844 C 295.187073 341.194824 296.485352 341.628448 297.545074 342.45578 C 298.589233 343.283478 299.331696 344.45993 299.61203 345.771759 C 299.786804 346.574188 317.504059 426.441803 346.24649 452.204956 C 349.815918 455.422089 352.718903 459.307007 354.780334 463.662628 C 356.825836 468.003204 357.996307 472.721802 358.20697 477.525848 C 358.52951 485.631927 362.484528 491.926605 369.975037 496.242676 L 371.415222 497.402008 C 371.734039 497.751038 380.72821 507.087524 399.921783 503.406311 L 401.813385 503.359985 C 421.16449 506.097687 429.690765 496.332184 430.037354 495.920563 L 431.373688 494.739807 C 438.643982 490.062836 442.286163 483.581787 442.211884 475.469635 C 442.141541 470.693115 443.033569 465.939514 444.848755 461.504486 C 446.664337 457.08493 449.358765 453.078339 452.782715 449.72113 C 480.326874 422.735046 494.154663 341.816772 494.289734 341.007233 C 494.464722 339.916962 494.967224 338.896271 495.707214 338.071411 C 496.447632 337.262054 497.410736 336.679993 498.474091 336.390228 C 499.537476 336.100433 500.670471 336.119263 501.718445 336.465942 C 502.781464 336.796753 503.712189 337.425568 504.41568 338.277161 L 509.643433 344.603027 C 514.104553 350.032196 519.870544 354.250702 526.403198 356.836731 C 532.920715 359.438721 540.001038 360.320374 546.976563 359.435974 L 561.418823 357.484497 L 557.017395 346.267059 C 555.168579 341.720337 552.368958 337.631012 548.811218 334.258423 C 545.238037 330.886261 541.001526 328.305939 536.370178 326.697235 L 527.357483 323.566803 C 526.199524 323.160736 525.203674 322.409393 524.51239 321.417938 C 523.820618 320.41098 523.44989 319.20993 523.4823 317.999023 C 523.514343 316.772644 523.920044 315.599182 524.656616 314.634766 C 525.392822 313.654877 526.430481 312.946869 527.60083 312.592438 C 532.206177 311.223053 537.242493 308.462402 542.558472 304.438385 C 557.91095 292.768158 568.406982 275.368225 572.123413 255.435913 C 577.757385 225.107483 571.321777 200.504517 552.972656 182.291077 C 548.472717 177.824768 543.459351 173.929016 538.026917 170.649231 C 549.619995 196.801208 551.458252 219.298218 543.484497 237.691223 C 538.417542 249.357544 529.472473 259.133362 516.922302 266.763 C 508.163269 272.097229 497.87027 276.24292 486.352264 279.131409 C 477.269226 281.370605 467.69342 280.581055 459.115967 276.865967 C 442.185791 269.72522 423.960724 270.512512 411.658295 272.44281 C 400.778229 274.151917 389.739044 274.422119 378.788391 273.247375 C 366.406616 271.921509 348.164856 272.026733 331.603943 279.987244 C 323.218933 284.117554 313.692841 285.374695 304.511108 283.582581 C 292.865173 281.261292 282.381653 277.623962 273.372498 272.724731 C 260.46405 265.717834 251.051453 256.391785 245.419769 244.987366 C 236.555466 227.006531 237.291183 204.461548 247.575836 177.790771 C 242.187698 181.397766 237.265594 185.660645 232.914825 190.452454 C 215.741745 209.505188 210.62355 234.280579 217.683334 264.11322 C 222.370575 283.841003 233.705322 300.706543 249.610397 311.610474 C 255.117279 315.385223 260.282257 317.880524 264.949066 319.022919 C 266.135406 319.319672 267.206421 319.976074 267.989685 320.918762 C 268.772583 321.845947 269.235168 322.998169 269.327209 324.221497 C 269.418823 325.429382 269.10733 326.647095 268.465668 327.686737 C 267.823608 328.710876 266.86618 329.525482 265.729095 329.972229 L 256.880341 333.539886 C 252.333237 335.37323 248.228043 338.157745 244.824127 341.700745 C 241.435699 345.243286 238.839539 349.464752 237.215347 354.096466 L 233.368027 365.515808 L 247.888474 366.758331 C 254.898514 367.300415 261.927216 366.057861 268.310028 363.15564 C 274.707947 360.237549 280.260986 355.757507 284.451141 350.116547 L 289.363129 343.54245 L 291.339294 341.880615 L 293.836639 341.22995 Z" />
      </g>
      <path
         id="fx"
         fill="#000000"
         fill-rule="evenodd"
         stroke="none"
         d="M 708.605469 638.765137 L 716.23291 638.765137 C 723.119629 638.765137 728.264648 639.405762 731.667969 640.687012 C 735.071289 641.968262 737.293457 643.890137 738.334473 646.452637 C 739.375488 649.015137 739.895996 654.380371 739.895996 662.54834 L 739.895996 712.216797 C 739.895996 720.424866 739.375488 725.790039 738.334473 728.3125 C 737.293457 730.834961 735.111328 732.746826 731.788086 734.048096 C 728.464844 735.349365 723.279785 736 716.23291 736 L 708.605469 736 L 708.605469 723.327637 C 712.168945 723.327637 714.431152 723.147461 715.39209 722.787109 C 716.353027 722.426758 717.023682 721.696045 717.404053 720.594971 C 717.784424 719.493896 717.974609 716.721191 717.974609 712.276855 L 717.974609 662.488281 C 717.974609 657.723633 717.734375 654.830811 717.253906 653.809814 C 716.773438 652.788818 716.042725 652.138184 715.061768 651.85791 L 708.605469 651.4375 Z M 705.482422 656.302246 L 695.812988 694.379395 L 707.524414 736 L 683.921387 736 C 681.599121 725.509705 679.837402 716.480957 678.63623 708.913574 L 673.411133 736 L 653.111328 736 L 663.561523 694.379395 L 653.111328 656.302246 L 673.411133 656.302246 L 678.63623 683.989258 C 680.958496 670.415955 682.720215 661.187012 683.921387 656.302246 Z M 650.88916 638.765137 L 650.88916 651.4375 L 644.432861 651.85791 C 643.451904 652.138184 642.731201 652.788818 642.270752 653.809814 C 641.810303 654.830811 641.580078 657.723633 641.580078 662.488281 L 641.580078 712.276855 C 641.580078 716.721191 641.760254 719.493896 642.120605 720.594971 C 642.480957 721.696045 643.151611 722.426758 644.132568 722.787109 C 645.113525 723.147461 647.365723 723.327637 650.88916 723.327637 L 650.88916 736 L 643.261719 736 C 636.214783 736 631.039795 735.349365 627.736572 734.048096 C 624.43335 732.746826 622.251221 730.834961 621.190186 728.3125 C 620.12915 725.790039 619.598633 720.424866 619.598633 712.216797 L 619.598633 662.54834 C 619.598633 654.380371 620.119141 649.015137 621.160156 646.452637 C 622.201172 643.890137 624.42334 641.968262 627.82666 640.687012 C 631.22998 639.405762 636.374939 638.765137 643.261719 638.765137 Z M 614.253418 638.765137 L 614.253418 651.077148 C 609.248535 651.077148 606.295654 651.307373 605.394775 651.767822 C 604.493896 652.228271 604.043457 653.539551 604.043457 655.70166 L 604.043457 658.224121 L 614.253418 658.224121 L 614.253418 670.836426 L 608.487793 670.836426 L 608.487793 736 L 584.224121 736 L 584.224121 670.836426 L 579.239258 670.836426 L 579.239258 658.224121 L 584.224121 658.224121 C 584.224121 652.979004 584.404297 649.475586 584.764648 647.713867 C 585.125 645.952148 586.015869 644.380615 587.437256 642.999268 C 588.858643 641.61792 590.850586 640.566895 593.413086 639.846191 C 595.975586 639.125488 599.959473 638.765137 605.364746 638.765137 Z" />
    </g>
    <text
       xml:space="preserve"
       style="font-style:normal;font-variant:normal;font-weight:normal;font-stretch:normal;font-size:480px;font-family:Impact;-inkscape-font-specification:'Impact, Normal';font-variant-ligatures:normal;font-variant-caps:normal;font-variant-numeric:normal;font-variant-east-asian:normal;text-align:start;writing-mode:lr-tb;direction:ltr;text-anchor:start;fill:#000000;stroke-width:32"
       x="835.47107"
       y="772.94043"
       id="text1"
       inkscape:label="outbox"><tspan
         sodipodi:role="line"
         id="tspan1"
         x="835.47107"
         y="772.94043"
         style="font-style:normal;font-variant:normal;font-weight:normal;font-stretch:normal;font-size:480px;font-family:Impact;-inkscape-font-specification:'Impact, Normal';font-variant-ligatures:normal;font-variant-caps:normal;font-variant-numeric:normal;font-variant-east-asian:normal;stroke-width:32">Outbox</tspan></text>
    <text
       xml:space="preserve"
       style="font-style:normal;font-variant:normal;font-weight:normal;font-stretch:normal;font-size:480px;font-family:Impact;-inkscape-font-specification:'Impact, Normal';font-variant-ligatures:normal;font-variant-caps:normal;font-variant-numeric:normal;font-variant-east-asian:normal;text-align:start;writing-mode:lr-tb;direction:ltr;text-anchor:start;fill:#efb219;fill-opacity:1;stroke-width:32"
       x="2211.8706"
       y="772.97211"
       id="text1-1"
       inkscape:label="kit"><tspan
         sodipodi:role="line"
         id="tspan1-8"
         x="2211.8706"
         y="772.97211"
         style="font-style:normal;font-variant:normal;font-weight:normal;font-stretch:normal;font-size:480px;font-family:Impact;-inkscape-font-specification:'Impact, Normal';font-variant-ligatures:normal;font-variant-caps:normal;font-variant-numeric:normal;font-variant-east-asian:normal;fill:#efb219;fill-opacity:1;stroke-width:32">Kit</tspan></text>
  </g>
</svg>
