<?xml version="1.0" encoding="UTF-8"?>
<!-- Generated by Pixelmator Pro 3.6.11 -->
<svg width="800" height="801" viewBox="0 0 800 801" xmlns="http://www.w3.org/2000/svg">
    <g id="Color">
        <g id="Letter">
            <path id="Path" fill="#fffdf5" fill-rule="evenodd" stroke="none" d="M 106 289 L 687 289 L 765 348 L 439 559 L 353 561 L 29 345 L 106 289 Z"/>
            <path id="path1" fill="#efb219" fill-rule="evenodd" stroke="#000000" stroke-width="10" d="M 113 403 L 113 24 L 571 22 L 676 121 L 682 403 L 436 560 L 351 560 Z"/>
            <path id="path2" fill="#f0ede4" fill-rule="evenodd" stroke="none" d="M 26 358 L 358 562 L 436 562 L 775 350 L 773 785 L 24 783 Z"/>
            <path id="Oval" fill="#b43c3c" fill-rule="evenodd" stroke="none" d="M 435 605.5 C 435 584.237061 417.76297 567 396.5 567 C 375.23703 567 358 584.237061 358 605.5 C 358 626.762939 375.23703 644 396.5 644 C 417.76297 644 435 626.762939 435 605.5 Z"/>
            <path id="path3" fill="#000000" stroke="none" d="M 768.469543 317.266418 L 695.643372 262.724487 L 695.643372 106.361389 L 596.338928 6 L 99.657883 6 L 99.657883 262.724487 L 26.831734 317.266418 C 12.242025 328.19342 0.321681 352.034119 0.321681 370.225342 L 0.321681 767.538391 C 0.321681 785.791626 15.222113 800.661072 33.413353 800.661072 L 761.857666 800.661072 C 780.079956 800.661072 794.980347 785.76062 794.980347 767.538391 L 795.011353 370.225342 C 795.011353 352.034119 783.091003 328.19342 768.470337 317.266418 Z M 748.633301 343.776489 C 750.092224 344.863007 751.582275 346.50824 753.041321 348.432922 L 695.64325 386.211639 L 695.64325 304.104309 Z M 596.307129 53.09491 L 648.023926 105.370422 L 596.307129 105.370422 Z M 563.215515 39.125854 L 563.215515 138.462036 L 662.551697 138.462036 L 662.551697 408.004883 L 440.594849 553.997314 C 428.860474 543.970703 413.588135 537.855591 396.917908 537.855591 C 380.589417 537.855591 365.596008 543.69165 353.955414 553.376648 L 132.74559 407.940491 L 132.74559 39.125061 Z M 396.918732 570.979858 C 415.761627 570.979858 431.065765 586.315002 431.065765 605.126892 C 431.065765 623.938782 415.761627 639.273865 396.918732 639.273865 C 378.106812 639.273865 362.771667 623.938782 362.771667 605.126892 C 362.771667 586.315002 378.075806 570.979858 396.918732 570.979858 Z M 46.667187 343.778076 L 99.657089 304.105591 L 99.657089 386.149353 L 42.259045 348.401581 C 43.718014 346.507965 45.208057 344.862762 46.667107 343.776245 Z M 761.82428 767.57019 L 33.475342 767.57019 L 33.41325 382.266357 L 334.465515 580.191772 C 331.392303 587.890381 329.684998 596.30249 329.684998 605.118896 C 329.684998 642.276917 359.79657 672.387695 396.922913 672.387695 C 434.049194 672.387695 464.191803 642.276123 464.191803 605.118896 C 464.191803 596.644226 462.608582 588.542358 459.752716 581.061157 L 761.893677 382.261627 L 761.831604 767.565369 Z"/>
            <path id="path4" fill="#000000" stroke="none" d="M 281.753876 701.355835 L 83.081451 701.355835 C 73.924248 701.355835 66.536018 708.775024 66.536018 717.901306 C 66.536018 727.058472 73.955154 734.477722 83.081451 734.477722 L 281.753876 734.477722 C 290.911072 734.477722 298.330292 727.058533 298.330292 717.901306 C 298.330292 708.775085 290.911163 701.355835 281.753876 701.355835 Z"/>
            <path id="path5" fill="#000000" stroke="none" d="M 83.081451 668.233154 L 149.326004 668.233154 C 158.483215 668.233154 165.871429 660.845032 165.871429 651.687744 C 165.871429 642.561523 158.452286 635.142273 149.326004 635.142273 L 83.081451 635.142273 C 73.924248 635.142273 66.536018 642.530396 66.536018 651.687744 C 66.536018 660.813965 73.955154 668.233154 83.081451 668.233154 Z"/>
        </g>
        <g id="Bull">
            <path id="Path-copy" fill="#9d5d41" stroke="#000000" stroke-width="11.22807" d="M 409.754272 514.360962 L 401.148163 513.90448 C 378.981018 517.813599 366.619385 507.783905 363.552582 504.833771 C 350.232056 496.844147 347.0177 485.318573 346.674561 476.995789 C 346.53244 473.725769 345.740295 470.51828 344.349518 467.573639 C 342.958344 464.613464 340.985626 461.977844 338.542694 459.788086 C 313.877197 437.679047 297.527893 383.282318 291.226349 359.082764 C 285.795105 365.359344 278.965118 370.273743 271.285309 373.440491 C 263.605469 376.591614 255.291122 377.911987 247.021805 377.261353 L 232.784622 376.182526 C 230.966019 376.040894 229.199509 375.494537 227.625015 374.555695 C 226.050995 373.632385 224.716293 372.346313 223.717041 370.819397 C 222.702316 369.292877 222.069839 367.539703 221.854935 365.729675 C 221.639954 363.919861 221.842865 362.068634 222.452316 360.347076 L 226.338959 349.268066 C 230.241104 338.188721 238.238846 329.010376 248.687653 323.619293 L 243.094299 320.110443 C 224.822647 307.588043 211.814911 288.296631 206.469513 265.761963 C 196.452042 223.483276 210.856033 196.524902 224.710953 181.335999 C 239.669006 164.959534 256.906403 158.673096 257.629059 158.407166 C 258.705658 158.024048 259.883636 157.979675 260.992065 158.262878 C 262.100555 158.545959 263.108002 159.141907 263.87384 160.007446 C 264.639343 160.857483 265.131042 161.931458 265.282776 163.060181 C 265.434906 164.204529 265.245972 165.357117 264.743835 166.393433 C 249.904892 196.512695 246.887543 220.911743 255.766937 238.876404 C 260.32074 248.08905 272.995911 264.564819 306.765076 271.278259 C 313.483337 272.572144 320.457306 271.641235 326.604095 268.605164 C 345.617737 259.451843 366.140137 259.306152 380.013367 260.781982 C 389.953217 261.857361 400.000092 261.611389 409.875427 260.051025 C 423.661346 257.898376 444.165161 257.039612 463.603363 265.251648 C 469.891388 267.983337 476.902557 268.571899 483.5495 266.950806 C 516.948181 258.593689 528.802795 241.51709 532.901184 232.092651 C 540.89093 213.714661 536.683105 189.492004 520.388733 160.13562 C 519.836487 159.125244 519.591309 157.983276 519.687256 156.832825 C 519.783569 155.697876 520.222168 154.601257 520.94519 153.714722 C 521.667786 152.812744 522.629395 152.16864 523.738098 151.831238 C 524.831421 151.494202 525.994507 151.481262 527.104187 151.810913 C 527.838989 152.041138 545.363342 157.476685 561.104736 173.101624 C 575.68573 187.591736 591.391846 213.815857 583.455078 256.534058 C 579.218628 279.303589 567.170349 299.210297 549.533203 312.609283 L 544.118286 316.387665 C 554.818237 321.261017 563.255493 330.037048 567.695068 340.912262 L 572.119263 351.787811 C 572.812073 353.477417 573.105408 355.316376 572.979187 357.134766 C 572.853088 358.953033 572.291687 360.735291 571.368286 362.309448 C 570.444885 363.883545 569.174927 365.233307 567.647888 366.232483 C 566.121338 367.247223 564.383667 367.879272 562.558533 368.110168 L 548.406677 369.883942 C 540.178711 370.923065 531.810059 370.026428 523.985352 367.254761 C 516.160095 364.467621 509.09787 359.89328 503.365692 353.889923 C 498.241791 378.434326 484.516541 433.767456 460.85083 456.964966 C 458.547974 459.224335 456.737274 461.937195 455.507416 464.930542 C 454.292969 467.923431 453.689026 471.134216 453.737244 474.375458 C 453.817047 482.704742 451.170502 494.373749 438.256989 503.005524 C 435.731506 505.673737 426.563599 513.949951 409.756378 514.361328 Z"/>
            <path id="path6" fill="#000000" stroke="#000000" stroke-width="11.22807" d="M 409.754242 514.360901 L 401.148132 513.90448 C 378.981018 517.813599 366.619354 507.783905 363.552551 504.833771 C 350.232025 496.844116 347.01767 485.318604 346.67453 476.995758 C 346.53244 473.725769 345.740295 470.518311 344.349518 467.573639 C 342.958374 464.613495 340.985626 461.977814 338.542725 459.788055 C 313.877228 437.679077 297.527863 383.282318 291.226349 359.082733 C 285.795105 365.359344 278.965118 370.273773 271.285309 373.44046 C 263.605499 376.591614 255.291107 377.911987 247.02179 377.261322 L 232.784607 376.182526 C 230.966003 376.040863 229.199524 375.494568 227.625 374.555695 C 226.05101 373.632355 224.716324 372.346313 223.717072 370.819397 C 222.702332 369.292847 222.06987 367.539703 221.854904 365.729706 C 221.639938 363.91983 221.842865 362.068665 222.452301 360.347076 L 226.338974 349.268066 C 230.241119 338.18869 238.238846 329.010376 248.687622 323.619293 L 243.094315 320.110413 C 224.822662 307.588043 211.81488 288.296692 206.469543 265.761963 C 196.452057 223.483276 210.856049 196.524963 224.710922 181.335999 C 239.669022 164.959534 256.906372 158.673096 257.629059 158.407227 C 258.705658 158.023987 259.883636 157.979675 260.992096 158.262817 C 262.100525 158.545959 263.107971 159.141907 263.87384 160.007446 C 264.639313 160.857483 265.131042 161.931396 265.282806 163.060242 C 265.434906 164.204529 265.245941 165.357178 264.743835 166.393433 C 249.904877 196.512695 246.887573 220.911804 255.766968 238.876465 C 260.320709 248.089111 272.99588 264.564758 306.765106 271.278259 C 313.483368 272.572144 320.457336 271.641235 326.604126 268.605164 C 345.617706 259.451843 366.140167 259.306152 380.013336 260.781982 C 389.953186 261.857361 400.000061 261.611389 409.875397 260.051025 C 423.661346 257.898376 444.165131 257.039673 463.603363 265.251648 C 469.891388 267.983337 476.902527 268.571899 483.549469 266.950867 C 516.948181 258.593628 528.802856 241.51709 532.901184 232.092651 C 540.89093 213.714722 536.683105 189.492065 520.388672 160.135681 C 519.836487 159.125244 519.591309 157.983215 519.687256 156.832825 C 519.783569 155.697937 520.222168 154.601257 520.94519 153.714722 C 521.667786 152.812744 522.629333 152.16864 523.738098 151.831238 C 524.83136 151.494202 525.994568 151.481201 527.104187 151.810913 C 527.838989 152.041138 545.363281 157.476624 561.104736 173.101624 C 575.68573 187.591736 591.391907 213.815796 583.455017 256.533997 C 579.218628 279.303589 567.170349 299.210297 549.533203 312.609283 L 544.118286 316.387665 C 554.818359 321.261047 563.255554 330.037048 567.695129 340.912231 L 572.119202 351.787811 C 572.812134 353.477386 573.105347 355.316376 572.979248 357.134766 C 572.853088 358.953003 572.291626 360.735321 571.368286 362.309479 C 570.444946 363.883514 569.174805 365.233307 567.647888 366.232513 C 566.121277 367.247253 564.383667 367.879303 562.558594 368.110199 L 548.406677 369.883911 C 540.178711 370.923096 531.81012 370.026428 523.985291 367.254791 C 516.160156 364.467651 509.09787 359.89325 503.365692 353.889923 C 498.241791 378.434326 484.51651 433.767426 460.8508 456.964966 C 458.548004 459.224335 456.737244 461.937195 455.507416 464.930542 C 454.292999 467.923431 453.688995 471.134216 453.737274 474.375427 C 453.817047 482.704712 451.170532 494.373718 438.256989 503.005524 C 435.731476 505.673706 426.563629 513.949951 409.756378 514.361328 Z M 293.838165 340.227844 C 295.187073 340.194824 296.485352 340.628448 297.545074 341.45578 C 298.589233 342.283478 299.331696 343.45993 299.61203 344.771759 C 299.786804 345.574188 317.504059 425.441803 346.24649 451.204956 C 349.815918 454.422089 352.718903 458.307007 354.780334 462.662628 C 356.825836 467.003204 357.996307 471.721802 358.20697 476.525848 C 358.52951 484.631927 362.484528 490.926605 369.975037 495.242676 L 371.415222 496.402008 C 371.734039 496.751038 380.72821 506.087524 399.921783 502.406311 L 401.813385 502.359985 C 421.16449 505.097687 429.690765 495.332184 430.037354 494.920563 L 431.373688 493.739807 C 438.643982 489.062836 442.286163 482.581787 442.211884 474.469635 C 442.141541 469.693115 443.033569 464.939514 444.848755 460.504486 C 446.664337 456.08493 449.358765 452.078339 452.782715 448.72113 C 480.326874 421.735046 494.154663 340.816772 494.289734 340.007233 C 494.464722 338.916962 494.967224 337.896271 495.707214 337.071411 C 496.447632 336.262054 497.410736 335.679993 498.474091 335.390228 C 499.537476 335.100433 500.670471 335.119263 501.718445 335.465942 C 502.781464 335.796753 503.712189 336.425568 504.41568 337.277161 L 509.643433 343.603027 C 514.104553 349.032196 519.870544 353.250702 526.403198 355.836731 C 532.920715 358.438721 540.001038 359.320374 546.976563 358.435974 L 561.418823 356.484497 L 557.017395 345.267059 C 555.168579 340.720337 552.368958 336.631012 548.811218 333.258423 C 545.238037 329.886261 541.001526 327.305939 536.370178 325.697235 L 527.357483 322.566803 C 526.199524 322.160736 525.203674 321.409393 524.51239 320.417938 C 523.820618 319.41098 523.44989 318.20993 523.4823 316.999023 C 523.514343 315.772644 523.920044 314.599182 524.656616 313.634766 C 525.392822 312.654877 526.430481 311.946869 527.60083 311.592438 C 532.206177 310.223053 537.242493 307.462402 542.558472 303.438385 C 557.91095 291.768158 568.406982 274.368225 572.123413 254.435913 C 577.757385 224.107483 571.321777 199.504517 552.972656 181.291077 C 548.472717 176.824768 543.459351 172.929016 538.026917 169.649231 C 549.619995 195.801208 551.458252 218.298218 543.484497 236.691223 C 538.417542 248.357544 529.472473 258.133362 516.922302 265.763 C 508.163269 271.097229 497.87027 275.24292 486.352264 278.131409 C 477.269226 280.370605 467.69342 279.581055 459.115967 275.865967 C 442.185791 268.72522 423.960724 269.512512 411.658295 271.44281 C 400.778229 273.151917 389.739044 273.422119 378.788391 272.247375 C 366.406616 270.921509 348.164856 271.026733 331.603943 278.987244 C 323.218933 283.117554 313.692841 284.374695 304.511108 282.582581 C 292.865173 280.261292 282.381653 276.623962 273.372498 271.724731 C 260.46405 264.717834 251.051453 255.391785 245.419769 243.987366 C 236.555466 226.006531 237.291183 203.461548 247.575836 176.790771 C 242.187698 180.397766 237.265594 184.660645 232.914825 189.452454 C 215.741745 208.505188 210.62355 233.280579 217.683334 263.11322 C 222.370575 282.841003 233.705322 299.706543 249.610397 310.610474 C 255.117279 314.385223 260.282257 316.880524 264.949066 318.022919 C 266.135406 318.319672 267.206421 318.976074 267.989685 319.918762 C 268.772583 320.845947 269.235168 321.998169 269.327209 323.221497 C 269.418823 324.429382 269.10733 325.647095 268.465668 326.686737 C 267.823608 327.710876 266.86618 328.525482 265.729095 328.972229 L 256.880341 332.539886 C 252.333237 334.37323 248.228043 337.157745 244.824127 340.700745 C 241.435699 344.243286 238.839539 348.464752 237.215347 353.096466 L 233.368027 364.515808 L 247.888474 365.758331 C 254.898514 366.300415 261.927216 365.057861 268.310028 362.15564 C 274.707947 359.237549 280.260986 354.757507 284.451141 349.116547 L 289.363129 342.54245 L 291.339294 340.880615 L 293.836639 340.22995 Z"/>
        </g>
        <path id="fx" fill="#000000" fill-rule="evenodd" stroke="none" d="M 708.605469 637.765137 L 716.23291 637.765137 C 723.119629 637.765137 728.264648 638.405762 731.667969 639.687012 C 735.071289 640.968262 737.293457 642.890137 738.334473 645.452637 C 739.375488 648.015137 739.895996 653.380371 739.895996 661.54834 L 739.895996 711.216797 C 739.895996 719.424866 739.375488 724.790039 738.334473 727.3125 C 737.293457 729.834961 735.111328 731.746826 731.788086 733.048096 C 728.464844 734.349365 723.279785 735 716.23291 735 L 708.605469 735 L 708.605469 722.327637 C 712.168945 722.327637 714.431152 722.147461 715.39209 721.787109 C 716.353027 721.426758 717.023682 720.696045 717.404053 719.594971 C 717.784424 718.493896 717.974609 715.721191 717.974609 711.276855 L 717.974609 661.488281 C 717.974609 656.723633 717.734375 653.830811 717.253906 652.809814 C 716.773438 651.788818 716.042725 651.138184 715.061768 650.85791 L 708.605469 650.4375 Z M 705.482422 655.302246 L 695.812988 693.379395 L 707.524414 735 L 683.921387 735 C 681.599121 724.509705 679.837402 715.480957 678.63623 707.913574 L 673.411133 735 L 653.111328 735 L 663.561523 693.379395 L 653.111328 655.302246 L 673.411133 655.302246 L 678.63623 682.989258 C 680.958496 669.415955 682.720215 660.187012 683.921387 655.302246 Z M 650.88916 637.765137 L 650.88916 650.4375 L 644.432861 650.85791 C 643.451904 651.138184 642.731201 651.788818 642.270752 652.809814 C 641.810303 653.830811 641.580078 656.723633 641.580078 661.488281 L 641.580078 711.276855 C 641.580078 715.721191 641.760254 718.493896 642.120605 719.594971 C 642.480957 720.696045 643.151611 721.426758 644.132568 721.787109 C 645.113525 722.147461 647.365723 722.327637 650.88916 722.327637 L 650.88916 735 L 643.261719 735 C 636.214783 735 631.039795 734.349365 627.736572 733.048096 C 624.43335 731.746826 622.251221 729.834961 621.190186 727.3125 C 620.12915 724.790039 619.598633 719.424866 619.598633 711.216797 L 619.598633 661.54834 C 619.598633 653.380371 620.119141 648.015137 621.160156 645.452637 C 622.201172 642.890137 624.42334 640.968262 627.82666 639.687012 C 631.22998 638.405762 636.374939 637.765137 643.261719 637.765137 Z M 614.253418 637.765137 L 614.253418 650.077148 C 609.248535 650.077148 606.295654 650.307373 605.394775 650.767822 C 604.493896 651.228271 604.043457 652.539551 604.043457 654.70166 L 604.043457 657.224121 L 614.253418 657.224121 L 614.253418 669.836426 L 608.487793 669.836426 L 608.487793 735 L 584.224121 735 L 584.224121 669.836426 L 579.239258 669.836426 L 579.239258 657.224121 L 584.224121 657.224121 C 584.224121 651.979004 584.404297 648.475586 584.764648 646.713867 C 585.125 644.952148 586.015869 643.380615 587.437256 641.999268 C 588.858643 640.61792 590.850586 639.566895 593.413086 638.846191 C 595.975586 638.125488 599.959473 637.765137 605.364746 637.765137 Z"/>
    </g>
</svg>
